<svg width="213" height="75" viewBox="0 0 213 75" fill="none" xmlns="http://www.w3.org/2000/svg">
<path d="M23.7812 28.6875H33.75V6.84375C33.75 4.57292 34.0729 2.86458 34.7188 1.71875C35.3854 0.572917 36.1771 0 37.0938 0C37.5521 0 37.9792 0.135417 38.375 0.40625C38.7917 0.677083 39.1562 1 39.4688 1.375C39.7812 1.72917 40.0208 2.10417 40.1875 2.5C40.375 2.875 40.4688 3.17708 40.4688 3.40625C40.4688 3.63542 40.375 3.77083 40.1875 3.8125C40.0208 3.83333 39.8229 3.94792 39.5938 4.15625C39.3854 4.34375 39.1875 4.72917 39 5.3125C38.8333 5.89583 38.75 6.85417 38.75 8.1875V48.3125C38.75 48.8542 38.5625 49.2292 38.1875 49.4375C37.8333 49.6667 37.4167 49.7812 36.9375 49.7812C36.5625 49.7812 36.1875 49.7292 35.8125 49.625C35.4375 49.5208 35.0938 49.3854 34.7812 49.2188C34.4896 49.0521 34.2396 48.8542 34.0312 48.625C33.8438 48.4167 33.75 48.1875 33.75 47.9375V33.1562H23.7812V48.3125C23.7812 48.8542 23.5938 49.2292 23.2188 49.4375C22.8646 49.6667 22.4479 49.7812 21.9688 49.7812C21.5938 49.7812 21.2188 49.7292 20.8438 49.625C20.4688 49.5208 20.125 49.3854 19.8125 49.2188C19.5208 49.0521 19.2708 48.8542 19.0625 48.625C18.875 48.4167 18.7812 48.1875 18.7812 47.9375V33.1562H14.2188C13.8854 33.1562 13.5729 33.0521 13.2812 32.8438C13.0104 32.6354 12.7708 32.375 12.5625 32.0625C12.375 31.7292 12.2188 31.375 12.0938 31C11.9896 30.625 11.9375 30.2708 11.9375 29.9375C11.9375 29.5833 12.0104 29.2917 12.1562 29.0625C12.3229 28.8125 12.5625 28.6875 12.875 28.6875H18.7812V8C16.8021 8 14.9792 8.33333 13.3125 9C11.6667 9.64583 10.2396 10.5833 9.03125 11.8125C7.84375 13.0208 6.90625 14.4896 6.21875 16.2188C5.55208 17.9479 5.21875 19.8854 5.21875 22.0312C5.21875 23.3854 5.35417 24.6042 5.625 25.6875C5.89583 26.7708 6.21875 27.6979 6.59375 28.4688C6.96875 29.2188 7.34375 29.8021 7.71875 30.2188C8.09375 30.6354 8.38542 30.8438 8.59375 30.8438C8.78125 30.8438 8.91667 30.7917 9 30.6875C9.08333 30.5833 9.20833 30.5312 9.375 30.5312C9.54167 30.5312 9.64583 30.6458 9.6875 30.875C9.72917 31.1042 9.75 31.3333 9.75 31.5625C9.75 32.2292 9.61458 32.8646 9.34375 33.4688C9.07292 34.0521 8.72917 34.5312 8.3125 34.9062C7.91667 35.2604 7.46875 35.4792 6.96875 35.5625C6.46875 35.6458 5.98958 35.5208 5.53125 35.1875C4.96875 34.7917 4.36458 34.2292 3.71875 33.5C3.09375 32.75 2.51042 31.8333 1.96875 30.75C1.44792 29.6667 1.01042 28.4167 0.65625 27C0.322917 25.5625 0.15625 23.9688 0.15625 22.2188C0.15625 19.9479 0.447917 17.9062 1.03125 16.0938C1.63542 14.2604 2.4375 12.6458 3.4375 11.25C4.45833 9.83333 5.65625 8.625 7.03125 7.625C8.40625 6.60417 9.86458 5.77083 11.4062 5.125C12.9688 4.45833 14.5833 3.96875 16.25 3.65625C17.9375 3.34375 19.5938 3.1875 21.2188 3.1875C21.5521 3.1875 21.875 3.26042 22.1875 3.40625C22.5 3.53125 22.7708 3.71875 23 3.96875C23.2292 4.19792 23.4167 4.47917 23.5625 4.8125C23.7083 5.14583 23.7812 5.5 23.7812 5.875V28.6875ZM59.4062 29.375C59.4062 30.5625 59.1979 31.7812 58.7812 33.0312C58.3854 34.2812 57.7812 35.4688 56.9688 36.5938C56.1771 37.6979 55.1875 38.6979 54 39.5938C52.8333 40.4688 51.4792 41.1354 49.9375 41.5938C50.1458 42.1354 50.4167 42.6562 50.75 43.1562C51.1042 43.6354 51.5208 44.0521 52 44.4062C52.4792 44.7604 53.0312 45.0417 53.6562 45.25C54.3021 45.4583 55.0417 45.5625 55.875 45.5625C57.125 45.5625 58.1979 45.3333 59.0938 44.875C59.9896 44.3958 60.7396 43.7708 61.3438 43C61.9688 42.2292 62.4688 41.3646 62.8438 40.4062C63.2188 39.4479 63.5 38.4792 63.6875 37.5C63.8333 36.7917 64.125 36.3229 64.5625 36.0938C65.0208 35.8438 65.4792 35.7812 65.9375 35.9062C66.4167 36.0312 66.8229 36.3021 67.1562 36.7188C67.5104 37.1146 67.6562 37.5938 67.5938 38.1562C67.5104 38.8021 67.3646 39.5417 67.1562 40.375C66.9688 41.2083 66.6771 42.0521 66.2812 42.9062C65.8854 43.7604 65.375 44.6042 64.75 45.4375C64.1458 46.25 63.3958 46.9792 62.5 47.625C61.6042 48.2708 60.5521 48.7917 59.3438 49.1875C58.1354 49.5833 56.75 49.7812 55.1875 49.7812C53.7292 49.7812 52.3125 49.4896 50.9375 48.9062C49.5833 48.3438 48.375 47.5312 47.3125 46.4688C46.2708 45.3854 45.4271 44.0625 44.7812 42.5C44.1562 40.9167 43.8438 39.125 43.8438 37.125C43.8438 35.1042 44.125 33.2292 44.6875 31.5C45.25 29.75 45.9896 28.2396 46.9062 26.9688C47.8229 25.6979 48.8646 24.7083 50.0312 24C51.1979 23.2708 52.3958 22.9062 53.625 22.9062C54.5208 22.9062 55.3229 23.0625 56.0312 23.375C56.7604 23.6875 57.375 24.1354 57.875 24.7188C58.375 25.2812 58.75 25.9583 59 26.75C59.2708 27.5417 59.4062 28.4167 59.4062 29.375ZM49.0938 36.9375C49.0938 37.125 49.1042 37.3125 49.125 37.5C49.1458 37.6875 49.1562 37.8854 49.1562 38.0938C49.9479 37.7188 50.6667 37.2396 51.3125 36.6562C51.9583 36.0729 52.5104 35.4062 52.9688 34.6562C53.4271 33.9062 53.7812 33.0938 54.0312 32.2188C54.2812 31.3229 54.4062 30.3958 54.4062 29.4375C54.4062 28.7292 54.2812 28.1771 54.0312 27.7812C53.8021 27.3854 53.4792 27.1875 53.0625 27.1875C52.5417 27.1875 52.0729 27.3646 51.6562 27.7188C51.2604 28.0729 50.9062 28.5417 50.5938 29.125C50.3021 29.6875 50.0521 30.3333 49.8438 31.0625C49.6562 31.7708 49.5 32.4896 49.375 33.2188C49.25 33.9479 49.1667 34.6458 49.125 35.3125C49.0833 35.9583 49.0729 36.5 49.0938 36.9375ZM86.4062 38.6562C86.5938 37.9896 86.8125 37.5104 87.0625 37.2188C87.3125 36.9062 87.6042 36.75 87.9375 36.75C88.1875 36.75 88.4479 36.8333 88.7188 37C88.9896 37.1458 89.2292 37.3438 89.4375 37.5938C89.6667 37.8438 89.8438 38.125 89.9688 38.4375C90.1146 38.75 90.1875 39.0625 90.1875 39.375C90.1875 39.4167 90.1875 39.5 90.1875 39.625C90.1875 39.75 90.1667 39.875 90.125 40C89.5833 41.8542 88.9479 43.5 88.2188 44.9375C87.5104 46.3542 86.7396 47.625 85.9062 48.75C85.0938 49.875 84.25 50.875 83.375 51.75C82.5 52.6458 81.625 53.4688 80.75 54.2188V65.2812C80.75 66.9688 80.5521 68.3854 80.1562 69.5312C79.7812 70.6979 79.2812 71.6354 78.6562 72.3438C78.0312 73.0729 77.3229 73.5938 76.5312 73.9062C75.7396 74.2188 74.9375 74.375 74.125 74.375C73.2292 74.375 72.4062 74.1771 71.6562 73.7812C70.9062 73.4062 70.25 72.8854 69.6875 72.2188C69.1458 71.5521 68.7188 70.7708 68.4062 69.875C68.1146 68.9792 67.9688 68.0208 67.9688 67C67.9688 65.375 68.1771 63.9375 68.5938 62.6875C69.0312 61.4375 69.6146 60.2917 70.3438 59.25C71.0729 58.2083 71.9167 57.2292 72.875 56.3125C73.8333 55.4167 74.8438 54.5 75.9062 53.5625V45.4375C75.1354 46.7292 74.2396 47.7812 73.2188 48.5938C72.1979 49.4271 71 49.8438 69.625 49.8438C68.5625 49.8438 67.6042 49.625 66.75 49.1875C65.9167 48.75 65.2083 48.1354 64.625 47.3438C64.0417 46.5312 63.5938 45.5625 63.2812 44.4375C62.9896 43.2917 62.8438 42.0208 62.8438 40.625C62.8438 38.9375 62.9583 37.2396 63.1875 35.5312C63.4375 33.8229 63.7083 32.2812 64 30.9062C64.3333 29.3021 64.7188 27.75 65.1562 26.25C65.2604 25.9792 65.3333 25.7083 65.375 25.4375C65.4375 25.1458 65.5625 24.8854 65.75 24.6562C65.9375 24.4271 66.2292 24.2396 66.625 24.0938C67.0417 23.9479 67.6771 23.875 68.5312 23.875C69.3229 23.875 69.8333 24.0208 70.0625 24.3125C70.2917 24.5833 70.375 24.9062 70.3125 25.2812C70.2708 25.6562 70.1458 26.0417 69.9375 26.4375C69.75 26.8333 69.625 27.1562 69.5625 27.4062C69.2708 28.5938 69.0104 29.6771 68.7812 30.6562C68.5521 31.6354 68.3542 32.625 68.1875 33.625C68.0417 34.6042 67.9271 35.6354 67.8438 36.7188C67.7604 37.7812 67.7188 38.9792 67.7188 40.3125C67.7188 42.0625 67.9688 43.3854 68.4688 44.2812C68.9896 45.1771 69.7188 45.625 70.6562 45.625C71.3021 45.625 71.8958 45.3854 72.4375 44.9062C73 44.4271 73.5 43.7917 73.9375 43C74.3958 42.1875 74.7917 41.2708 75.125 40.25C75.4583 39.2083 75.7188 38.125 75.9062 37V26.6875C75.9062 26.0833 75.8646 25.6458 75.7812 25.375C75.6979 25.1042 75.6562 24.8542 75.6562 24.625C75.6562 24.3125 75.8125 24.0625 76.125 23.875C76.4583 23.6667 76.8542 23.5625 77.3125 23.5625C78.375 23.5625 79.2083 23.8438 79.8125 24.4062C80.4375 24.9479 80.75 25.6042 80.75 26.375V48.8438C81.9167 47.5521 82.9896 46.0833 83.9688 44.4375C84.9479 42.7917 85.7604 40.8646 86.4062 38.6562ZM74.125 70.3438C74.625 70.3438 75 70.1354 75.25 69.7188C75.5 69.3021 75.6667 68.8125 75.75 68.25C75.8542 67.7083 75.9062 67.1562 75.9062 66.5938C75.9062 66.0312 75.9062 65.5938 75.9062 65.2812V58.4375C74.8646 59.4792 74.0208 60.6562 73.375 61.9688C72.75 63.2812 72.4375 64.8958 72.4375 66.8125C72.4375 67.8125 72.5833 68.6458 72.875 69.3125C73.1875 70 73.6042 70.3438 74.125 70.3438ZM104.781 45.5625C105.427 45.5625 105.979 45.3333 106.438 44.875C106.917 44.4167 107.323 43.8438 107.656 43.1562C108.01 42.4688 108.292 41.7292 108.5 40.9375C108.729 40.125 108.917 39.3646 109.062 38.6562C109.208 37.9896 109.417 37.5104 109.688 37.2188C109.979 36.9062 110.292 36.75 110.625 36.75C110.875 36.75 111.125 36.8333 111.375 37C111.646 37.1458 111.885 37.3438 112.094 37.5938C112.323 37.8438 112.5 38.125 112.625 38.4375C112.771 38.75 112.844 39.0625 112.844 39.375C112.844 39.4167 112.844 39.4688 112.844 39.5312C112.844 39.5938 112.823 39.6875 112.781 39.8125C112.51 40.875 112.135 41.9896 111.656 43.1562C111.198 44.3229 110.604 45.3958 109.875 46.375C109.146 47.3542 108.26 48.1667 107.219 48.8125C106.198 49.4583 105 49.7812 103.625 49.7812C102.5 49.7812 101.521 49.5417 100.688 49.0625C99.8542 48.5833 99.1979 47.9479 98.7188 47.1562C98.0729 47.8854 97.2917 48.5 96.375 49C95.4792 49.5208 94.4271 49.7812 93.2188 49.7812C91.9688 49.7812 90.8646 49.5312 89.9062 49.0312C88.9688 48.5312 88.1771 47.8542 87.5312 47C86.8854 46.125 86.3958 45.1042 86.0625 43.9375C85.75 42.75 85.5938 41.4792 85.5938 40.125C85.5938 37.4583 86.0208 35.0625 86.875 32.9375C87.7292 30.8125 88.8646 29.0104 90.2812 27.5312C91.6979 26.0312 93.3125 24.8854 95.125 24.0938C96.9583 23.3021 98.8542 22.9062 100.812 22.9062C101.688 22.9062 102.396 23.1458 102.938 23.625C103.479 24.1042 103.75 24.7604 103.75 25.5938C103.75 26.1354 103.688 26.5208 103.562 26.75C103.458 26.9583 103.25 27.0625 102.938 27.0625C102.646 27.0625 102.344 27.0417 102.031 27C101.719 26.9583 101.396 26.9375 101.062 26.9375C99.8542 26.9375 98.625 27.2083 97.375 27.75C96.125 28.2708 94.9896 29.0833 93.9688 30.1875C92.9688 31.2708 92.1458 32.6562 91.5 34.3438C90.8542 36.0104 90.5312 38 90.5312 40.3125C90.5312 42 90.8542 43.3021 91.5 44.2188C92.1458 45.1146 93.0312 45.5625 94.1562 45.5625C95.0312 45.5625 95.7604 45.2396 96.3438 44.5938C96.9271 43.9271 97.3958 43.1458 97.75 42.25V32.375C97.75 32.0625 97.7292 31.8021 97.6875 31.5938C97.6667 31.3854 97.6354 31.2083 97.5938 31.0625C97.5729 30.9167 97.5521 30.7917 97.5312 30.6875C97.5104 30.5625 97.5 30.4479 97.5 30.3438C97.5 30.0104 97.6562 29.75 97.9688 29.5625C98.3021 29.3542 98.6979 29.25 99.1562 29.25C100.219 29.25 101.062 29.5312 101.688 30.0938C102.312 30.6354 102.625 31.2917 102.625 32.0625V42.625C102.625 42.9792 102.667 43.3333 102.75 43.6875C102.833 44.0208 102.958 44.3333 103.125 44.625C103.292 44.8958 103.51 45.125 103.781 45.3125C104.073 45.4792 104.406 45.5625 104.781 45.5625ZM113.219 67C113.219 65.375 113.427 63.9375 113.844 62.6875C114.281 61.4375 114.865 60.2917 115.594 59.25C116.323 58.2083 117.167 57.2292 118.125 56.3125C119.083 55.4167 120.094 54.5 121.156 53.5625V46.8438C120.51 47.4896 119.75 48.0312 118.875 48.4688C118.021 48.9271 117.031 49.1562 115.906 49.1562C114.656 49.1562 113.552 48.9062 112.594 48.4062C111.656 47.9062 110.865 47.2292 110.219 46.375C109.573 45.5 109.083 44.4792 108.75 43.3125C108.438 42.125 108.281 40.8542 108.281 39.5C108.281 36.8333 108.708 34.4375 109.562 32.3125C110.417 30.1875 111.552 28.3854 112.969 26.9062C114.385 25.4062 116 24.2604 117.812 23.4688C119.646 22.6771 121.542 22.2812 123.5 22.2812C124.375 22.2812 125.083 22.5208 125.625 23C126.167 23.4583 126.438 24.1146 126.438 24.9688C126.438 25.5104 126.375 25.8958 126.25 26.125C126.146 26.3333 125.938 26.4375 125.625 26.4375C125.333 26.4375 125.031 26.4167 124.719 26.375C124.406 26.3333 124.083 26.3125 123.75 26.3125C122.542 26.3125 121.312 26.5833 120.062 27.125C118.812 27.6458 117.677 28.4583 116.656 29.5625C115.656 30.6458 114.833 32.0312 114.188 33.7188C113.542 35.3854 113.219 37.375 113.219 39.6875C113.219 41.3542 113.542 42.6458 114.188 43.5625C114.833 44.4792 115.719 44.9375 116.844 44.9375C117.49 44.9375 118.052 44.75 118.531 44.375C119.01 43.9792 119.427 43.4896 119.781 42.9062C120.135 42.3229 120.417 41.6875 120.625 41C120.854 40.2917 121.031 39.6146 121.156 38.9688V31.75C121.156 31.1458 121.104 30.7083 121 30.4375C120.917 30.1667 120.875 29.9167 120.875 29.6875C120.875 29.375 121.042 29.1146 121.375 28.9062C121.708 28.6979 122.104 28.5938 122.562 28.5938C123.625 28.5938 124.458 28.875 125.062 29.4375C125.688 29.9792 126 30.6458 126 31.4375V48.8438C127.167 47.5521 128.229 46.0833 129.188 44.4375C130.167 42.7917 130.979 40.8646 131.625 38.6562C131.833 37.9896 132.062 37.5104 132.312 37.2188C132.562 36.9062 132.854 36.75 133.188 36.75C133.438 36.75 133.688 36.8333 133.938 37C134.208 37.1458 134.448 37.3438 134.656 37.5938C134.885 37.8438 135.062 38.125 135.188 38.4375C135.333 38.75 135.406 39.0625 135.406 39.375C135.406 39.4167 135.406 39.5 135.406 39.625C135.406 39.75 135.385 39.875 135.344 40C134.802 41.8542 134.167 43.5 133.438 44.9375C132.729 46.3542 131.969 47.625 131.156 48.75C130.344 49.875 129.5 50.875 128.625 51.75C127.75 52.6458 126.875 53.4688 126 54.2188V65.2812C126 66.9688 125.802 68.3854 125.406 69.5312C125.031 70.6979 124.531 71.6354 123.906 72.3438C123.281 73.0729 122.562 73.5938 121.75 73.9062C120.958 74.2188 120.156 74.375 119.344 74.375C118.448 74.375 117.625 74.1771 116.875 73.7812C116.125 73.4062 115.479 72.8854 114.938 72.2188C114.396 71.5521 113.969 70.7708 113.656 69.875C113.365 68.9792 113.219 68.0208 113.219 67ZM119.344 70.3438C119.865 70.3438 120.25 70.1354 120.5 69.7188C120.75 69.3021 120.917 68.8125 121 68.25C121.104 67.7083 121.156 67.1562 121.156 66.5938C121.156 66.0312 121.156 65.5938 121.156 65.2812V58.4375C120.115 59.4792 119.271 60.6562 118.625 61.9688C118 63.2812 117.688 64.8958 117.688 66.8125C117.688 67.8125 117.833 68.6458 118.125 69.3125C118.417 70 118.823 70.3438 119.344 70.3438ZM145.875 49.7812C145.125 49.7812 144.354 49.6667 143.562 49.4375C142.792 49.2083 142.083 48.8125 141.438 48.25C140.812 47.6875 140.292 46.9479 139.875 46.0312C139.479 45.0938 139.281 43.9167 139.281 42.5C139.281 40.4375 139.552 38.2604 140.094 35.9688C140.656 33.6562 141.458 31.1146 142.5 28.3438H137.625H136.906C136.885 28.9688 136.844 29.7604 136.781 30.7188C136.74 31.6771 136.656 32.6979 136.531 33.7812C136.406 34.8646 136.24 35.9583 136.031 37.0625C135.844 38.1667 135.604 39.1875 135.312 40.125C135.104 40.7917 134.771 41.1771 134.312 41.2812C133.875 41.3854 133.438 41.3125 133 41.0625C132.562 40.7917 132.208 40.4062 131.938 39.9062C131.667 39.4062 131.604 38.8854 131.75 38.3438C131.917 37.6979 132.062 36.9167 132.188 36C132.312 35.0625 132.406 34.0833 132.469 33.0625C132.552 32.0208 132.615 30.9896 132.656 29.9688C132.698 28.9271 132.729 28 132.75 27.1875C131.958 26.75 131.302 26.1979 130.781 25.5312C130.26 24.8438 130 24.0312 130 23.0938C130 22.6562 130.083 22.2604 130.25 21.9062C130.438 21.5312 130.677 21.2188 130.969 20.9688C131.26 20.6979 131.604 20.5 132 20.375C132.396 20.2292 132.802 20.1562 133.219 20.1562C133.594 20.1562 133.979 20.2083 134.375 20.3125C134.792 20.4167 135.177 20.6042 135.531 20.875C135.906 21.1458 136.24 21.5 136.531 21.9375C136.823 22.375 137.062 22.9167 137.25 23.5625C137.771 23.625 138.208 23.6771 138.562 23.7188C138.938 23.7396 139.25 23.7604 139.5 23.7812C139.75 23.8021 139.958 23.8125 140.125 23.8125C140.292 23.8125 140.458 23.8125 140.625 23.8125H143.969C144.156 23.8125 144.427 23.9271 144.781 24.1562C145.156 24.3854 145.521 24.6875 145.875 25.0625C146.229 25.4167 146.521 25.8021 146.75 26.2188C147 26.6354 147.094 27.0312 147.031 27.4062C147.031 27.5312 146.958 27.8333 146.812 28.3125C146.667 28.7917 146.49 29.3958 146.281 30.125C146.073 30.8542 145.844 31.6979 145.594 32.6562C145.344 33.5938 145.115 34.5833 144.906 35.625C144.698 36.6667 144.521 37.75 144.375 38.875C144.229 39.9792 144.156 41.0625 144.156 42.125C144.156 42.5625 144.208 42.9896 144.312 43.4062C144.417 43.8229 144.573 44.1979 144.781 44.5312C144.99 44.8438 145.25 45.0938 145.562 45.2812C145.896 45.4688 146.281 45.5625 146.719 45.5625C147.448 45.5625 148.073 45.3333 148.594 44.875C149.115 44.4167 149.552 43.8438 149.906 43.1562C150.26 42.4688 150.542 41.7292 150.75 40.9375C150.979 40.125 151.167 39.3646 151.312 38.6562C151.438 37.9896 151.646 37.5104 151.938 37.2188C152.229 36.9062 152.531 36.75 152.844 36.75C153.094 36.75 153.354 36.8333 153.625 37C153.896 37.1458 154.135 37.3438 154.344 37.5938C154.573 37.8438 154.75 38.125 154.875 38.4375C155.021 38.75 155.094 39.0625 155.094 39.375C155.094 39.4792 155.083 39.5625 155.062 39.625C155.042 39.6875 155.031 39.75 155.031 39.8125C154.74 40.875 154.354 41.9896 153.875 43.1562C153.417 44.3229 152.823 45.3958 152.094 46.375C151.365 47.3542 150.49 48.1667 149.469 48.8125C148.448 49.4583 147.25 49.7812 145.875 49.7812ZM169.719 45.5625C170.365 45.5625 170.917 45.3333 171.375 44.875C171.854 44.4167 172.26 43.8438 172.594 43.1562C172.948 42.4688 173.229 41.7292 173.438 40.9375C173.667 40.125 173.854 39.3646 174 38.6562C174.146 37.9896 174.354 37.5104 174.625 37.2188C174.917 36.9062 175.229 36.75 175.562 36.75C175.812 36.75 176.062 36.8333 176.312 37C176.583 37.1458 176.823 37.3438 177.031 37.5938C177.26 37.8438 177.438 38.125 177.562 38.4375C177.708 38.75 177.781 39.0625 177.781 39.375C177.781 39.4167 177.781 39.4688 177.781 39.5312C177.781 39.5938 177.76 39.6875 177.719 39.8125C177.448 40.875 177.073 41.9896 176.594 43.1562C176.135 44.3229 175.542 45.3958 174.812 46.375C174.083 47.3542 173.198 48.1667 172.156 48.8125C171.135 49.4583 169.938 49.7812 168.562 49.7812C167.438 49.7812 166.458 49.5417 165.625 49.0625C164.792 48.5833 164.135 47.9479 163.656 47.1562C163.01 47.8854 162.229 48.5 161.312 49C160.417 49.5208 159.365 49.7812 158.156 49.7812C156.906 49.7812 155.802 49.5312 154.844 49.0312C153.906 48.5312 153.115 47.8542 152.469 47C151.823 46.125 151.333 45.1042 151 43.9375C150.688 42.75 150.531 41.4792 150.531 40.125C150.531 37.4583 150.958 35.0625 151.812 32.9375C152.667 30.8125 153.802 29.0104 155.219 27.5312C156.635 26.0312 158.25 24.8854 160.062 24.0938C161.896 23.3021 163.792 22.9062 165.75 22.9062C166.625 22.9062 167.333 23.1458 167.875 23.625C168.417 24.1042 168.688 24.7604 168.688 25.5938C168.688 26.1354 168.625 26.5208 168.5 26.75C168.396 26.9583 168.188 27.0625 167.875 27.0625C167.583 27.0625 167.281 27.0417 166.969 27C166.656 26.9583 166.333 26.9375 166 26.9375C164.792 26.9375 163.562 27.2083 162.312 27.75C161.062 28.2708 159.927 29.0833 158.906 30.1875C157.906 31.2708 157.083 32.6562 156.438 34.3438C155.792 36.0104 155.469 38 155.469 40.3125C155.469 42 155.792 43.3021 156.438 44.2188C157.083 45.1146 157.969 45.5625 159.094 45.5625C159.969 45.5625 160.698 45.2396 161.281 44.5938C161.865 43.9271 162.333 43.1458 162.688 42.25V32.375C162.688 32.0625 162.667 31.8021 162.625 31.5938C162.604 31.3854 162.573 31.2083 162.531 31.0625C162.51 30.9167 162.49 30.7917 162.469 30.6875C162.448 30.5625 162.438 30.4479 162.438 30.3438C162.438 30.0104 162.594 29.75 162.906 29.5625C163.24 29.3542 163.635 29.25 164.094 29.25C165.156 29.25 166 29.5312 166.625 30.0938C167.25 30.6354 167.562 31.2917 167.562 32.0625V42.625C167.562 42.9792 167.604 43.3333 167.688 43.6875C167.771 44.0208 167.896 44.3333 168.062 44.625C168.229 44.8958 168.448 45.125 168.719 45.3125C169.01 45.4792 169.344 45.5625 169.719 45.5625ZM212.5 39.8125C212.208 40.875 211.823 41.9896 211.344 43.1562C210.885 44.3229 210.292 45.3958 209.562 46.375C208.833 47.3542 207.958 48.1667 206.938 48.8125C205.917 49.4583 204.719 49.7812 203.344 49.7812C202.49 49.7812 201.729 49.6146 201.062 49.2812C200.417 48.9688 199.854 48.5417 199.375 48C198.917 47.4583 198.562 46.8229 198.312 46.0938C198.083 45.3646 197.969 44.5938 197.969 43.7812V30.7812C197.969 30.2812 197.958 29.8125 197.938 29.375C197.917 28.9375 197.865 28.5521 197.781 28.2188C197.698 27.8854 197.573 27.625 197.406 27.4375C197.26 27.2292 197.052 27.125 196.781 27.125C196.344 27.125 195.812 27.4375 195.188 28.0625C194.562 28.6875 193.958 29.5 193.375 30.5C192.792 31.5 192.271 32.6354 191.812 33.9062C191.354 35.1562 191.083 36.4167 191 37.6875V47.0312C191 47.3438 190.99 47.6667 190.969 48C190.969 48.3125 190.906 48.5938 190.781 48.8438C190.677 49.1146 190.5 49.3333 190.25 49.5C190.021 49.6875 189.677 49.7812 189.219 49.7812C188.906 49.7812 188.562 49.7396 188.188 49.6562C187.833 49.5938 187.5 49.4583 187.188 49.25C186.896 49.0625 186.646 48.7812 186.438 48.4062C186.25 48.0521 186.156 47.5729 186.156 46.9688V30.7812C186.156 30.2812 186.135 29.8125 186.094 29.375C186.073 28.9375 186.021 28.5521 185.938 28.2188C185.854 27.8854 185.729 27.625 185.562 27.4375C185.417 27.2292 185.208 27.125 184.938 27.125C184.5 27.125 183.969 27.4375 183.344 28.0625C182.74 28.6875 182.135 29.5 181.531 30.5C180.948 31.5 180.427 32.6354 179.969 33.9062C179.531 35.1562 179.26 36.4167 179.156 37.6875V47.0312C179.156 47.3438 179.146 47.6667 179.125 48C179.125 48.3125 179.062 48.5938 178.938 48.8438C178.833 49.1146 178.656 49.3333 178.406 49.5C178.177 49.6875 177.833 49.7812 177.375 49.7812C177.062 49.7812 176.719 49.7396 176.344 49.6562C175.99 49.5938 175.656 49.4583 175.344 49.25C175.052 49.0625 174.802 48.7812 174.594 48.4062C174.406 48.0521 174.312 47.5729 174.312 46.9688V26.6875C174.312 26.0833 174.26 25.6458 174.156 25.375C174.073 25.1042 174.031 24.8542 174.031 24.625C174.031 24.3125 174.198 24.0625 174.531 23.875C174.865 23.6667 175.26 23.5625 175.719 23.5625C176.781 23.5625 177.615 23.8438 178.219 24.4062C178.844 24.9479 179.156 25.6042 179.156 26.375V29.0625C179.573 28.1875 180.021 27.375 180.5 26.625C181 25.875 181.531 25.2292 182.094 24.6875C182.656 24.125 183.25 23.6875 183.875 23.375C184.521 23.0625 185.208 22.9062 185.938 22.9062C186.896 22.9062 187.688 23.0833 188.312 23.4375C188.958 23.7917 189.469 24.2604 189.844 24.8438C190.24 25.4271 190.521 26.0833 190.688 26.8125C190.854 27.5208 190.958 28.2292 191 28.9375C191.396 28.0833 191.833 27.2917 192.312 26.5625C192.792 25.8333 193.312 25.1979 193.875 24.6562C194.438 24.1146 195.031 23.6875 195.656 23.375C196.302 23.0625 196.99 22.9062 197.719 22.9062C198.76 22.9062 199.615 23.1042 200.281 23.5C200.948 23.8958 201.469 24.4062 201.844 25.0312C202.219 25.6562 202.479 26.3542 202.625 27.125C202.771 27.8958 202.844 28.6458 202.844 29.375V42.625C202.844 42.7708 202.854 43.0104 202.875 43.3438C202.896 43.6562 202.958 43.9792 203.062 44.3125C203.167 44.6458 203.323 44.9375 203.531 45.1875C203.76 45.4375 204.083 45.5625 204.5 45.5625C205.146 45.5625 205.698 45.3333 206.156 44.875C206.635 44.4167 207.042 43.8438 207.375 43.1562C207.729 42.4688 208.021 41.7292 208.25 40.9375C208.479 40.125 208.667 39.3646 208.812 38.6562C208.938 37.9896 209.135 37.5104 209.406 37.2188C209.698 36.9062 210.01 36.75 210.344 36.75C210.594 36.75 210.844 36.8333 211.094 37C211.365 37.1458 211.604 37.3438 211.812 37.5938C212.042 37.8438 212.219 38.125 212.344 38.4375C212.49 38.75 212.562 39.0625 212.562 39.375C212.562 39.4167 212.562 39.4688 212.562 39.5312C212.562 39.5938 212.542 39.6875 212.5 39.8125Z" fill="black"/>
</svg>
